<svg width="100" height="37" viewBox="0 0 100 37" fill="none" xmlns="http://www.w3.org/2000/svg">
<g clip-path="url(#clip0_5203_67817)">
<path d="M51.6281 12.389L56.3857 12.0843C56.4942 12.8551 56.6932 13.4287 57.0188 13.8409C57.5434 14.4862 58.267 14.8089 59.2258 14.8089C59.9313 14.8089 60.492 14.6475 60.8719 14.307C61.2337 14.0381 61.4508 13.6079 61.4508 13.1598C61.4508 12.7296 61.2518 12.3173 60.9081 12.0484C60.5463 11.7258 59.6961 11.4031 58.3575 11.1163C56.1686 10.6324 54.5948 9.98705 53.6722 9.1625C52.7496 8.39173 52.225 7.26245 52.2612 6.06148C52.2612 5.23693 52.5145 4.41238 52.9848 3.73123C53.5275 2.96046 54.2692 2.35101 55.1556 2.01043C56.1143 1.59816 57.453 1.38306 59.1353 1.38306C61.1975 1.38306 62.7714 1.75948 63.8567 2.53026C64.9421 3.28311 65.5934 4.502 65.7923 6.16903L61.089 6.4379C60.9624 5.7209 60.7091 5.20108 60.2931 4.8605C59.877 4.51993 59.3343 4.35861 58.6288 4.35861C58.0499 4.35861 57.6158 4.48408 57.3263 4.71711C57.055 4.9322 56.8741 5.25485 56.8922 5.61335C56.8922 5.88223 57.0369 6.13318 57.254 6.2945C57.4892 6.5096 58.0499 6.70678 58.9363 6.88603C61.1252 7.35208 62.6809 7.81813 63.6397 8.3021C64.5984 8.78608 65.2858 9.3776 65.7019 10.0767C66.136 10.7937 66.3531 11.6182 66.335 12.4607C66.335 13.4645 66.0456 14.4683 65.4667 15.3108C64.8698 16.1891 64.0376 16.8702 63.0608 17.2825C62.0297 17.7306 60.7272 17.9637 59.1715 17.9637C56.4219 17.9637 54.5224 17.4438 53.4551 16.3863C52.3878 15.3287 51.7547 14.0023 51.6281 12.389ZM1.13965 17.6948V1.66986H9.47902C11.0166 1.66986 12.2106 1.79533 13.0246 2.06421C13.8206 2.31516 14.5261 2.83498 14.9964 3.53406C15.521 4.30483 15.7742 5.20108 15.7562 6.13318C15.8104 7.71058 14.9964 9.21628 13.6035 10.005C13.0608 10.3097 12.4638 10.5248 11.8488 10.6324C12.301 10.7578 12.7533 10.9729 13.1512 11.2239C13.4588 11.4748 13.712 11.7616 13.9472 12.0664C14.2185 12.3711 14.4537 12.7117 14.6527 13.0702L17.0767 17.7127H11.3965L8.71925 12.7834C8.37554 12.156 8.08611 11.7437 7.81476 11.5465C7.45297 11.2956 7.01881 11.1701 6.58466 11.1701H6.15051V17.6769H1.13965V17.6948ZM6.15051 8.1587H8.267C8.71925 8.12285 9.1534 8.05115 9.58755 7.9436C9.91317 7.88983 10.2026 7.71058 10.4016 7.4417C10.89 6.7964 10.8177 5.88223 10.2207 5.32655C9.89508 5.05768 9.26194 4.91428 8.35745 4.91428H6.15051V8.1587ZM0 31.4253L4.7576 31.1206C4.86614 31.8914 5.06512 32.465 5.39074 32.8773C5.89725 33.5226 6.63893 33.8631 7.59769 33.8631C8.30318 33.8631 8.86397 33.7018 9.24385 33.3612C9.60564 33.0744 9.82272 32.6622 9.82272 32.214C9.82272 31.7838 9.62373 31.3716 9.28003 31.1027C8.91823 30.78 8.06802 30.4574 6.71129 30.1706C4.52243 29.6866 2.94863 29.0413 2.02605 28.2168C1.10347 27.446 0.578871 26.3167 0.615051 25.1157C0.615051 24.2912 0.868307 23.4666 1.33864 22.7855C1.88133 22.0147 2.62301 21.4053 3.50941 21.0647C4.46816 20.6524 5.8068 20.4373 7.48915 20.4373C9.55138 20.4373 11.1252 20.8137 12.2106 21.5845C13.2959 22.3553 13.9291 23.5563 14.1281 25.2233L9.42475 25.4922C9.29812 24.7752 9.04486 24.2553 8.6288 23.9148C8.23083 23.5742 7.67004 23.4129 6.96454 23.4308C6.38567 23.4308 5.95152 23.5563 5.66208 23.8072C5.37265 24.0223 5.20984 24.345 5.22793 24.7035C5.22793 24.9723 5.37265 25.2233 5.58973 25.3846C5.82489 25.5997 6.38567 25.7969 7.27207 25.9761C9.46093 26.4422 11.0166 26.9082 11.9754 27.3922C12.9342 27.8762 13.6216 28.4677 14.0376 29.1668C14.4718 29.8838 14.6889 30.7083 14.6889 31.5329C14.6889 32.5367 14.3813 33.5226 13.8206 34.365C13.2236 35.2434 12.3915 35.9245 11.4146 36.3368C10.3835 36.7849 9.08104 37.0179 7.52533 37.0179C4.77569 37.0179 2.87627 36.4981 1.80897 35.4405C0.741679 34.365 0.144718 33.0386 0 31.4253H0Z" fill="black"/>
<path d="M24.0593 30.1705L28.437 31.479C28.2019 32.5725 27.7134 33.6121 27.0441 34.5263C26.4291 35.3329 25.615 35.9603 24.6925 36.3726C23.7518 36.7848 22.5579 36.9999 21.1107 36.9999C19.356 36.9999 17.9088 36.749 16.8053 36.2471C15.6838 35.7452 14.725 34.8489 13.911 33.5763C13.0969 32.3036 12.699 30.6724 12.699 28.6827C12.699 26.0299 13.4045 23.9864 14.8336 22.5703C16.2627 21.1543 18.2706 20.4373 20.8755 20.4373C22.9197 20.4373 24.5116 20.8495 25.6874 21.6562C26.8451 22.4807 27.7134 23.7355 28.2923 25.4204L23.8784 26.3884C23.7699 26.0119 23.6071 25.6355 23.39 25.3129C23.1187 24.9364 22.775 24.6496 22.3589 24.4345C21.9428 24.2194 21.4725 24.1298 21.0022 24.1298C19.8625 24.1298 18.9942 24.5779 18.3972 25.4921C17.945 26.1553 17.7098 27.2129 17.7098 28.6469C17.7098 30.4215 17.9812 31.6404 18.5239 32.3036C19.0666 32.9668 19.8263 33.2895 20.8213 33.2895C21.78 33.2895 22.5036 33.0206 22.992 32.5008C23.4805 31.9451 23.8422 31.1743 24.0593 30.1705ZM34.28 20.7061H39.2728V26.3167H44.7359V20.7061H49.7648V36.7311H44.7359V30.2422H39.2728V36.7311H34.28V20.7061Z" fill="black"/>
<path d="M49.0774 28.7186C49.0774 26.1015 49.8191 24.0581 51.2843 22.6062C52.7496 21.1542 54.8118 20.4193 57.4348 20.4193C60.1302 20.4193 62.1924 21.1363 63.6577 22.5703C65.123 24.0043 65.8466 26.0119 65.8466 28.5931C65.8466 30.4752 65.521 31.9989 64.8878 33.1998C64.2728 34.3829 63.314 35.3508 62.1382 35.9961C60.9262 36.6593 59.4247 36.9999 57.6338 36.9999C55.8068 36.9999 54.3053 36.7131 53.1114 36.1395C51.8813 35.5301 50.8683 34.5801 50.199 33.4149C49.4573 32.1602 49.0774 30.6007 49.0774 28.7186ZM54.0702 28.7365C54.0702 30.3498 54.3777 31.5149 54.9746 32.2319C55.5716 32.931 56.4037 33.2895 57.4529 33.2895C58.5202 33.2895 59.3524 32.9489 59.9493 32.2498C60.5463 31.5507 60.8357 30.3139 60.8357 28.5214C60.8357 27.0157 60.5282 25.9044 59.9131 25.2232C59.2981 24.5241 58.466 24.1836 57.4168 24.1836C56.4942 24.1477 55.6078 24.5421 54.9927 25.2411C54.3777 25.9402 54.0702 27.1053 54.0702 28.7365ZM70.966 28.7186C70.966 26.1015 71.7076 24.0581 73.1729 22.6062C74.6382 21.1542 76.7004 20.4193 79.3234 20.4193C82.0188 20.4193 84.0991 21.1363 85.5463 22.5703C86.9935 24.0043 87.7351 26.0119 87.7351 28.5931C87.7351 30.4752 87.4095 31.9989 86.7764 33.1998C86.1613 34.3829 85.2026 35.3508 84.0267 35.9961C82.8147 36.6593 81.3133 36.9999 79.5224 36.9999C77.6953 36.9999 76.1939 36.7131 75 36.1395C73.7699 35.5301 72.7568 34.5801 72.0875 33.4149C71.3458 32.1602 70.966 30.6007 70.966 28.7186ZM75.9587 28.7365C75.9587 30.3498 76.2662 31.5149 76.8632 32.2319C77.4602 32.931 78.2923 33.2895 79.3415 33.2895C80.4088 33.2895 81.2409 32.9489 81.8379 32.2498C82.4348 31.5507 82.7243 30.3139 82.7243 28.5214C82.7243 27.0157 82.4168 25.9044 81.8017 25.2232C81.1867 24.5241 80.3545 24.1836 79.3053 24.1836C78.3827 24.1477 77.4783 24.5421 76.8813 25.2411C76.2662 25.9402 75.9587 27.1053 75.9587 28.7365Z" fill="black"/>
<path d="M87.2105 20.7062H92.2032V32.7876H99.9999V36.7311H87.1924V20.7062H87.2105Z" fill="black"/>
<path d="M81.7076 19.7813C86.7342 16.0279 88.2842 9.66508 85.1697 5.5697C82.0551 1.47431 75.4553 1.19716 70.4287 4.95065C65.4021 8.70414 63.852 15.0669 66.9666 19.1623C70.0811 23.2577 76.6809 23.5348 81.7076 19.7813Z" fill="white"/>
<path d="M81.7076 19.7817C86.7342 16.0282 88.2842 9.66545 85.1697 5.57006C82.0551 1.47468 75.4553 1.19752 70.4287 4.95101C65.4021 8.70451 63.852 15.0673 66.9666 19.1627C70.0811 23.258 76.6809 23.5352 81.7076 19.7817Z" stroke="black" stroke-miterlimit="10"/>
<path d="M70.9841 11.1884L72.7931 9.93362L75.0181 13.0705C75.398 13.5724 75.6875 14.1101 75.9045 14.7017C76.0312 15.1498 75.995 15.6338 75.8141 16.064C75.5789 16.6017 75.199 17.0498 74.6925 17.3725C74.0956 17.7848 73.589 18.0178 73.1549 18.0895C72.7388 18.1612 72.3047 18.0895 71.9067 17.9102C71.4725 17.6951 71.0927 17.3904 70.8032 16.9961L72.3589 15.5621C72.4856 15.7592 72.6484 15.9385 72.8293 16.0819C72.9559 16.1715 73.1006 16.2253 73.2634 16.2253C73.3901 16.2253 73.5167 16.1715 73.6071 16.0998C73.788 15.9923 73.9147 15.7772 73.8966 15.5621C73.8423 15.2573 73.7157 14.9526 73.5167 14.7196L70.9841 11.1884ZM76.411 13.178L78.0572 11.8874C78.2381 12.1025 78.4733 12.2639 78.7265 12.3535C79.0883 12.461 79.4682 12.3893 79.7757 12.1563C79.9928 12.0129 80.1737 11.8157 80.2461 11.5648C80.3546 11.2421 80.1737 10.8836 79.8481 10.7761C79.7938 10.7582 79.7395 10.7402 79.6853 10.7402C79.4682 10.7223 79.0883 10.8119 78.5275 11.045C77.605 11.4214 76.8814 11.5648 76.3387 11.511C75.8141 11.4572 75.3257 11.1884 75.0362 10.7402C74.8191 10.4355 74.7106 10.077 74.6925 9.71852C74.6925 9.30624 74.8011 8.89397 75.0362 8.55339C75.3799 8.06942 75.796 7.65714 76.3025 7.3345C77.0623 6.81467 77.7316 6.56372 78.3105 6.56372C78.8893 6.56372 79.432 6.8326 79.9385 7.38827L78.3105 8.66094C77.9848 8.24867 77.3698 8.15904 76.9537 8.48169L76.8995 8.53547C76.7186 8.64302 76.5919 8.80434 76.5196 9.00152C76.4653 9.14492 76.5015 9.30624 76.5919 9.43172C76.6643 9.52134 76.7728 9.59304 76.8995 9.59304C77.0442 9.61097 77.2974 9.53927 77.6592 9.37794C78.5637 9.00152 79.2511 8.78642 79.7215 8.71472C80.1194 8.64302 80.5355 8.67887 80.9154 8.84019C81.2591 8.98359 81.5485 9.23454 81.7475 9.53927C82.0008 9.89777 82.1455 10.328 82.1636 10.7761C82.1817 11.2421 82.055 11.6903 81.8018 12.0846C81.4762 12.5686 81.0601 12.9809 80.5717 13.3035C79.5767 13.9847 78.7627 14.2715 78.1115 14.1639C77.406 14.0564 76.8271 13.6979 76.411 13.178Z" fill="black"/>
</g>
<defs>
<clipPath id="clip0_5203_67817">
<rect width="100" height="36.8" fill="white" transform="translate(0 0.199951)"/>
</clipPath>
</defs>
</svg>
